<mxfile host="app.diagrams.net" agent="Mozilla/5.0 (X11; Linux x86_64) AppleWebKit/537.36 (KHTML, like Gecko) Chrome/130.0.0.0 Safari/537.36" version="28.2.1">
  <diagram name="Page-1" id="_ygjLbVbmLG81xbuxUzX">
    <mxGraphModel dx="1160" dy="755" grid="1" gridSize="10" guides="1" tooltips="1" connect="1" arrows="1" fold="1" page="1" pageScale="1" pageWidth="4681" pageHeight="3300" math="0" shadow="0">
      <root>
        <mxCell id="0" />
        <mxCell id="1" parent="0" />
        <mxCell id="OkytQklIWuGLJE1TqMZ0-1" value="Record R" style="swimlane;fontStyle=0;childLayout=stackLayout;horizontal=1;startSize=26;strokeColor=#DAEEF3;strokeWidth=3;fillColor=none;horizontalStack=0;resizeParent=1;resizeParentMax=0;resizeLast=0;collapsible=1;marginBottom=0;whiteSpace=wrap;html=1;" vertex="1" parent="1">
          <mxGeometry x="640" y="150" width="90" height="52" as="geometry" />
        </mxCell>
        <mxCell id="OkytQklIWuGLJE1TqMZ0-2" value="Record" style="text;strokeColor=#DAEEF3;strokeWidth=3;fillColor=none;align=center;verticalAlign=top;spacingLeft=4;spacingRight=4;overflow=hidden;rotatable=0;points=[[0,0.5],[1,0.5]];portConstraint=eastwest;whiteSpace=wrap;html=1;" vertex="1" parent="OkytQklIWuGLJE1TqMZ0-1">
          <mxGeometry y="26" width="90" height="26" as="geometry" />
        </mxCell>
        <mxCell id="OkytQklIWuGLJE1TqMZ0-3" value="Description of Record A" style="swimlane;fontStyle=0;childLayout=stackLayout;horizontal=1;startSize=26;strokeColor=#DAEEF3;strokeWidth=3;fillColor=none;horizontalStack=0;resizeParent=1;resizeParentMax=0;resizeLast=0;collapsible=1;marginBottom=0;whiteSpace=wrap;html=1;" vertex="1" parent="1">
          <mxGeometry x="620" y="410" width="150" height="52" as="geometry" />
        </mxCell>
        <mxCell id="OkytQklIWuGLJE1TqMZ0-4" value="Record" style="text;strokeColor=#DAEEF3;strokeWidth=3;fillColor=none;align=center;verticalAlign=top;spacingLeft=4;spacingRight=4;overflow=hidden;rotatable=0;points=[[0,0.5],[1,0.5]];portConstraint=eastwest;whiteSpace=wrap;html=1;" vertex="1" parent="OkytQklIWuGLJE1TqMZ0-3">
          <mxGeometry y="26" width="150" height="26" as="geometry" />
        </mxCell>
        <mxCell id="OkytQklIWuGLJE1TqMZ0-5" value="" style="endArrow=classic;html=1;rounded=0;exitX=0.494;exitY=1.038;exitDx=0;exitDy=0;exitPerimeter=0;" edge="1" parent="1" source="OkytQklIWuGLJE1TqMZ0-4" target="OkytQklIWuGLJE1TqMZ0-7">
          <mxGeometry relative="1" as="geometry">
            <mxPoint x="696" y="467" as="sourcePoint" />
            <mxPoint x="696" y="570" as="targetPoint" />
          </mxGeometry>
        </mxCell>
        <mxCell id="OkytQklIWuGLJE1TqMZ0-6" value="is or was included in" style="edgeLabel;resizable=0;html=1;;align=center;verticalAlign=middle;" connectable="0" vertex="1" parent="OkytQklIWuGLJE1TqMZ0-5">
          <mxGeometry relative="1" as="geometry" />
        </mxCell>
        <mxCell id="OkytQklIWuGLJE1TqMZ0-7" value="Database of holdings of archival institution I&amp;nbsp;" style="swimlane;fontStyle=0;childLayout=stackLayout;horizontal=1;startSize=40;strokeColor=#DAEEF3;fillColor=none;strokeWidth=3;horizontalStack=0;resizeParent=1;resizeParentMax=0;resizeLast=0;collapsible=1;marginBottom=0;whiteSpace=wrap;html=1;" vertex="1" parent="1">
          <mxGeometry x="610" y="560" width="170" height="66" as="geometry" />
        </mxCell>
        <mxCell id="OkytQklIWuGLJE1TqMZ0-8" value="Record Set" style="text;strokeColor=#DAEEF3;strokeWidth=3;fillColor=none;align=center;verticalAlign=top;spacingLeft=4;spacingRight=4;overflow=hidden;rotatable=0;points=[[0,0.5],[1,0.5]];portConstraint=eastwest;whiteSpace=wrap;html=1;" vertex="1" parent="OkytQklIWuGLJE1TqMZ0-7">
          <mxGeometry y="40" width="170" height="26" as="geometry" />
        </mxCell>
        <mxCell id="OkytQklIWuGLJE1TqMZ0-9" value="" style="endArrow=classic;html=1;rounded=0;entryX=1.02;entryY=0.386;entryDx=0;entryDy=0;entryPerimeter=0;exitX=0;exitY=0.5;exitDx=0;exitDy=0;" edge="1" parent="1" source="OkytQklIWuGLJE1TqMZ0-13" target="OkytQklIWuGLJE1TqMZ0-7">
          <mxGeometry relative="1" as="geometry">
            <mxPoint x="940" y="585" as="sourcePoint" />
            <mxPoint x="850" y="600" as="targetPoint" />
          </mxGeometry>
        </mxCell>
        <mxCell id="OkytQklIWuGLJE1TqMZ0-10" value="has creator" style="edgeLabel;resizable=0;html=1;;align=center;verticalAlign=middle;" connectable="0" vertex="1" parent="OkytQklIWuGLJE1TqMZ0-9">
          <mxGeometry relative="1" as="geometry" />
        </mxCell>
        <mxCell id="OkytQklIWuGLJE1TqMZ0-13" value="Archival institution I" style="swimlane;fontStyle=0;childLayout=stackLayout;horizontal=1;startSize=26;strokeColor=#C6D9F1;strokeWidth=3;fillColor=none;horizontalStack=0;resizeParent=1;resizeParentMax=0;resizeLast=0;collapsible=1;marginBottom=0;whiteSpace=wrap;html=1;" vertex="1" parent="1">
          <mxGeometry x="960" y="560" width="130" height="52" as="geometry" />
        </mxCell>
        <mxCell id="OkytQklIWuGLJE1TqMZ0-14" value="Corporate Body" style="text;strokeColor=#C6D9F1;strokeWidth=3;fillColor=none;align=center;verticalAlign=top;spacingLeft=4;spacingRight=4;overflow=hidden;rotatable=0;points=[[0,0.5],[1,0.5]];portConstraint=eastwest;whiteSpace=wrap;html=1;" vertex="1" parent="OkytQklIWuGLJE1TqMZ0-13">
          <mxGeometry y="26" width="130" height="26" as="geometry" />
        </mxCell>
        <mxCell id="OkytQklIWuGLJE1TqMZ0-15" value="Creation of description of Record R" style="swimlane;fontStyle=0;childLayout=stackLayout;horizontal=1;startSize=40;strokeColor=#FFFAA0;strokeWidth=3;fillColor=none;horizontalStack=0;resizeParent=1;resizeParentMax=0;resizeLast=0;collapsible=1;marginBottom=0;whiteSpace=wrap;html=1;" vertex="1" parent="1">
          <mxGeometry x="880" y="270" width="150" height="66" as="geometry" />
        </mxCell>
        <mxCell id="OkytQklIWuGLJE1TqMZ0-16" value="Activity" style="text;strokeColor=#FFFAA0;strokeWidth=3;fillColor=none;align=center;verticalAlign=top;spacingLeft=4;spacingRight=4;overflow=hidden;rotatable=0;points=[[0,0.5],[1,0.5]];portConstraint=eastwest;whiteSpace=wrap;html=1;" vertex="1" parent="OkytQklIWuGLJE1TqMZ0-15">
          <mxGeometry y="40" width="150" height="26" as="geometry" />
        </mxCell>
        <mxCell id="OkytQklIWuGLJE1TqMZ0-17" value="" style="endArrow=classic;html=1;rounded=0;exitX=1.022;exitY=0.399;exitDx=0;exitDy=0;exitPerimeter=0;" edge="1" parent="1" source="OkytQklIWuGLJE1TqMZ0-15" target="OkytQklIWuGLJE1TqMZ0-19">
          <mxGeometry relative="1" as="geometry">
            <mxPoint x="1060" y="310" as="sourcePoint" />
            <mxPoint x="1170" y="296" as="targetPoint" />
          </mxGeometry>
        </mxCell>
        <mxCell id="OkytQklIWuGLJE1TqMZ0-18" value="is or was performed by" style="edgeLabel;resizable=0;html=1;;align=center;verticalAlign=middle;" connectable="0" vertex="1" parent="OkytQklIWuGLJE1TqMZ0-17">
          <mxGeometry relative="1" as="geometry" />
        </mxCell>
        <mxCell id="OkytQklIWuGLJE1TqMZ0-19" value="Generative AI Chatbot C" style="swimlane;fontStyle=0;childLayout=stackLayout;horizontal=1;startSize=26;strokeColor=#E5DFEC;strokeWidth=3;fillColor=none;horizontalStack=0;resizeParent=1;resizeParentMax=0;resizeLast=0;collapsible=1;marginBottom=0;whiteSpace=wrap;html=1;" vertex="1" parent="1">
          <mxGeometry x="1200" y="270" width="160" height="52" as="geometry" />
        </mxCell>
        <mxCell id="OkytQklIWuGLJE1TqMZ0-20" value="Mechanism" style="text;strokeColor=#E5DFEC;strokeWidth=3;fillColor=none;align=center;verticalAlign=top;spacingLeft=4;spacingRight=4;overflow=hidden;rotatable=0;points=[[0,0.5],[1,0.5]];portConstraint=eastwest;whiteSpace=wrap;html=1;" vertex="1" parent="OkytQklIWuGLJE1TqMZ0-19">
          <mxGeometry y="26" width="160" height="26" as="geometry" />
        </mxCell>
        <mxCell id="OkytQklIWuGLJE1TqMZ0-21" value="" style="endArrow=classic;html=1;rounded=0;entryX=1;entryY=0.5;entryDx=0;entryDy=0;exitX=0;exitY=0;exitDx=0;exitDy=0;" edge="1" parent="1" source="OkytQklIWuGLJE1TqMZ0-15" target="OkytQklIWuGLJE1TqMZ0-2">
          <mxGeometry relative="1" as="geometry">
            <mxPoint x="490" y="320" as="sourcePoint" />
            <mxPoint x="680" y="320" as="targetPoint" />
          </mxGeometry>
        </mxCell>
        <mxCell id="OkytQklIWuGLJE1TqMZ0-22" value="affects or affected" style="edgeLabel;resizable=0;html=1;;align=center;verticalAlign=middle;" connectable="0" vertex="1" parent="OkytQklIWuGLJE1TqMZ0-21">
          <mxGeometry relative="1" as="geometry" />
        </mxCell>
        <mxCell id="OkytQklIWuGLJE1TqMZ0-23" value="" style="endArrow=classic;html=1;rounded=0;entryX=0.706;entryY=-0.022;entryDx=0;entryDy=0;entryPerimeter=0;exitX=0.006;exitY=1.109;exitDx=0;exitDy=0;exitPerimeter=0;" edge="1" parent="1" source="OkytQklIWuGLJE1TqMZ0-16" target="OkytQklIWuGLJE1TqMZ0-3">
          <mxGeometry relative="1" as="geometry">
            <mxPoint x="851" y="436" as="sourcePoint" />
            <mxPoint x="700" y="360" as="targetPoint" />
          </mxGeometry>
        </mxCell>
        <mxCell id="OkytQklIWuGLJE1TqMZ0-24" value="results or resulted in" style="edgeLabel;resizable=0;html=1;;align=center;verticalAlign=middle;" connectable="0" vertex="1" parent="OkytQklIWuGLJE1TqMZ0-23">
          <mxGeometry relative="1" as="geometry" />
        </mxCell>
        <mxCell id="OkytQklIWuGLJE1TqMZ0-25" value="Prompt fed to chatbot C to create description of Record A" style="swimlane;fontStyle=0;childLayout=stackLayout;horizontal=1;startSize=40;strokeColor=#DAEEF3;strokeWidth=3;fillColor=none;horizontalStack=0;resizeParent=1;resizeParentMax=0;resizeLast=0;collapsible=1;marginBottom=0;whiteSpace=wrap;html=1;" vertex="1" parent="1">
          <mxGeometry x="1220" y="390" width="210" height="66" as="geometry" />
        </mxCell>
        <mxCell id="OkytQklIWuGLJE1TqMZ0-26" value="Record" style="text;strokeColor=#DAEEF3;strokeWidth=3;fillColor=none;align=center;verticalAlign=top;spacingLeft=4;spacingRight=4;overflow=hidden;rotatable=0;points=[[0,0.5],[1,0.5]];portConstraint=eastwest;whiteSpace=wrap;html=1;" vertex="1" parent="OkytQklIWuGLJE1TqMZ0-25">
          <mxGeometry y="40" width="210" height="26" as="geometry" />
        </mxCell>
        <mxCell id="OkytQklIWuGLJE1TqMZ0-31" value="Original instantiation of Record R" style="swimlane;fontStyle=0;childLayout=stackLayout;horizontal=1;startSize=26;strokeColor=#F5DEB3;strokeWidth=2;fillColor=none;horizontalStack=0;resizeParent=1;resizeParentMax=0;resizeLast=0;collapsible=1;marginBottom=0;whiteSpace=wrap;html=1;" vertex="1" parent="1">
          <mxGeometry x="1040" y="150" width="200" height="52" as="geometry" />
        </mxCell>
        <mxCell id="OkytQklIWuGLJE1TqMZ0-32" value="Instantiation&lt;div&gt;&lt;br&gt;&lt;/div&gt;" style="text;strokeColor=#F5DEB3;strokeWidth=2;fillColor=#F5DEB3;align=center;verticalAlign=top;spacingLeft=4;spacingRight=4;overflow=hidden;rotatable=0;points=[[0,0.5],[1,0.5]];portConstraint=eastwest;whiteSpace=wrap;html=1;" vertex="1" parent="OkytQklIWuGLJE1TqMZ0-31">
          <mxGeometry y="26" width="200" height="26" as="geometry" />
        </mxCell>
        <mxCell id="OkytQklIWuGLJE1TqMZ0-33" value="" style="endArrow=classic;html=1;rounded=0;exitX=1.011;exitY=-0.154;exitDx=0;exitDy=0;exitPerimeter=0;" edge="1" parent="1" source="OkytQklIWuGLJE1TqMZ0-2">
          <mxGeometry relative="1" as="geometry">
            <mxPoint x="890" y="284" as="sourcePoint" />
            <mxPoint x="1040" y="174" as="targetPoint" />
          </mxGeometry>
        </mxCell>
        <mxCell id="OkytQklIWuGLJE1TqMZ0-34" value="has or had instantiation" style="edgeLabel;resizable=0;html=1;;align=center;verticalAlign=middle;" connectable="0" vertex="1" parent="OkytQklIWuGLJE1TqMZ0-33">
          <mxGeometry relative="1" as="geometry" />
        </mxCell>
        <mxCell id="OkytQklIWuGLJE1TqMZ0-35" value="" style="endArrow=classic;html=1;rounded=0;entryX=0.55;entryY=1;entryDx=0;entryDy=0;exitX=1;exitY=0;exitDx=0;exitDy=0;entryPerimeter=0;" edge="1" parent="1" source="OkytQklIWuGLJE1TqMZ0-15" target="OkytQklIWuGLJE1TqMZ0-32">
          <mxGeometry relative="1" as="geometry">
            <mxPoint x="890" y="280" as="sourcePoint" />
            <mxPoint x="740" y="219" as="targetPoint" />
          </mxGeometry>
        </mxCell>
        <mxCell id="OkytQklIWuGLJE1TqMZ0-36" value="affects or affected" style="edgeLabel;resizable=0;html=1;;align=center;verticalAlign=middle;" connectable="0" vertex="1" parent="OkytQklIWuGLJE1TqMZ0-35">
          <mxGeometry relative="1" as="geometry" />
        </mxCell>
        <mxCell id="OkytQklIWuGLJE1TqMZ0-37" value="" style="endArrow=classic;html=1;rounded=0;exitX=1;exitY=0.5;exitDx=0;exitDy=0;" edge="1" parent="1" source="OkytQklIWuGLJE1TqMZ0-31" target="OkytQklIWuGLJE1TqMZ0-39">
          <mxGeometry relative="1" as="geometry">
            <mxPoint x="1260" y="180" as="sourcePoint" />
            <mxPoint x="1430" y="176" as="targetPoint" />
          </mxGeometry>
        </mxCell>
        <mxCell id="OkytQklIWuGLJE1TqMZ0-38" value="representation type" style="edgeLabel;resizable=0;html=1;;align=center;verticalAlign=middle;" connectable="0" vertex="1" parent="OkytQklIWuGLJE1TqMZ0-37">
          <mxGeometry relative="1" as="geometry" />
        </mxCell>
        <mxCell id="OkytQklIWuGLJE1TqMZ0-39" value="Digital" style="html=1;whiteSpace=wrap;rounded=1;arcSize=50;" vertex="1" parent="1">
          <mxGeometry x="1410" y="151" width="110" height="50" as="geometry" />
        </mxCell>
        <mxCell id="OkytQklIWuGLJE1TqMZ0-40" value="" style="endArrow=classic;html=1;rounded=0;exitX=1;exitY=0;exitDx=0;exitDy=0;entryX=0;entryY=0.75;entryDx=0;entryDy=0;" edge="1" parent="1" source="OkytQklIWuGLJE1TqMZ0-1" target="OkytQklIWuGLJE1TqMZ0-43">
          <mxGeometry relative="1" as="geometry">
            <mxPoint x="820" y="120" as="sourcePoint" />
            <mxPoint x="950" y="70" as="targetPoint" />
          </mxGeometry>
        </mxCell>
        <mxCell id="OkytQklIWuGLJE1TqMZ0-41" value="content type" style="edgeLabel;resizable=0;html=1;;align=center;verticalAlign=middle;" connectable="0" vertex="1" parent="OkytQklIWuGLJE1TqMZ0-40">
          <mxGeometry relative="1" as="geometry" />
        </mxCell>
        <mxCell id="OkytQklIWuGLJE1TqMZ0-43" value="Photographic image" style="html=1;whiteSpace=wrap;rounded=1;arcSize=50;" vertex="1" parent="1">
          <mxGeometry x="895" y="45" width="135" height="50" as="geometry" />
        </mxCell>
        <mxCell id="OkytQklIWuGLJE1TqMZ0-44" value="" style="endArrow=classic;html=1;rounded=0;entryX=0.5;entryY=1;entryDx=0;entryDy=0;entryPerimeter=0;exitX=0.5;exitY=0;exitDx=0;exitDy=0;" edge="1" parent="1" source="OkytQklIWuGLJE1TqMZ0-46" target="OkytQklIWuGLJE1TqMZ0-26">
          <mxGeometry relative="1" as="geometry">
            <mxPoint x="1331" y="560" as="sourcePoint" />
            <mxPoint x="1344.95" y="471.98" as="targetPoint" />
          </mxGeometry>
        </mxCell>
        <mxCell id="OkytQklIWuGLJE1TqMZ0-45" value="has creator" style="edgeLabel;resizable=0;html=1;;align=center;verticalAlign=middle;" connectable="0" vertex="1" parent="OkytQklIWuGLJE1TqMZ0-44">
          <mxGeometry relative="1" as="geometry" />
        </mxCell>
        <mxCell id="OkytQklIWuGLJE1TqMZ0-46" value="Archivist A" style="swimlane;fontStyle=0;childLayout=stackLayout;horizontal=1;startSize=26;strokeColor=#E5DFEC;strokeWidth=3;fillColor=none;horizontalStack=0;resizeParent=1;resizeParentMax=0;resizeLast=0;collapsible=1;marginBottom=0;whiteSpace=wrap;html=1;" vertex="1" parent="1">
          <mxGeometry x="1280" y="560" width="90" height="52" as="geometry" />
        </mxCell>
        <mxCell id="OkytQklIWuGLJE1TqMZ0-47" value="Person" style="text;strokeColor=#E5DFEC;strokeWidth=3;fillColor=none;align=center;verticalAlign=top;spacingLeft=4;spacingRight=4;overflow=hidden;rotatable=0;points=[[0,0.5],[1,0.5]];portConstraint=eastwest;whiteSpace=wrap;html=1;" vertex="1" parent="OkytQklIWuGLJE1TqMZ0-46">
          <mxGeometry y="26" width="90" height="26" as="geometry" />
        </mxCell>
        <mxCell id="OkytQklIWuGLJE1TqMZ0-50" value="" style="endArrow=classic;html=1;rounded=0;entryX=-0.014;entryY=0.121;entryDx=0;entryDy=0;entryPerimeter=0;exitX=1;exitY=1.013;exitDx=0;exitDy=0;exitPerimeter=0;" edge="1" parent="1" source="OkytQklIWuGLJE1TqMZ0-16" target="OkytQklIWuGLJE1TqMZ0-25">
          <mxGeometry relative="1" as="geometry">
            <mxPoint x="1030" y="340" as="sourcePoint" />
            <mxPoint x="1150" y="390" as="targetPoint" />
          </mxGeometry>
        </mxCell>
        <mxCell id="OkytQklIWuGLJE1TqMZ0-51" value="documents" style="edgeLabel;resizable=0;html=1;;align=center;verticalAlign=middle;" connectable="0" vertex="1" parent="OkytQklIWuGLJE1TqMZ0-50">
          <mxGeometry relative="1" as="geometry" />
        </mxCell>
        <mxCell id="OkytQklIWuGLJE1TqMZ0-52" value="" style="endArrow=classic;html=1;rounded=0;entryX=1.023;entryY=-0.038;entryDx=0;entryDy=0;entryPerimeter=0;exitX=-0.044;exitY=-0.077;exitDx=0;exitDy=0;exitPerimeter=0;" edge="1" parent="1" source="OkytQklIWuGLJE1TqMZ0-47" target="OkytQklIWuGLJE1TqMZ0-14">
          <mxGeometry relative="1" as="geometry">
            <mxPoint x="1287" y="586.5" as="sourcePoint" />
            <mxPoint x="1110" y="585.5" as="targetPoint" />
          </mxGeometry>
        </mxCell>
        <mxCell id="OkytQklIWuGLJE1TqMZ0-53" value="is or was member of" style="edgeLabel;resizable=0;html=1;;align=center;verticalAlign=middle;" connectable="0" vertex="1" parent="OkytQklIWuGLJE1TqMZ0-52">
          <mxGeometry relative="1" as="geometry" />
        </mxCell>
        <mxCell id="OkytQklIWuGLJE1TqMZ0-54" value="" style="endArrow=classic;html=1;rounded=0;exitX=0.539;exitY=1.109;exitDx=0;exitDy=0;exitPerimeter=0;" edge="1" parent="1" source="OkytQklIWuGLJE1TqMZ0-16" target="OkytQklIWuGLJE1TqMZ0-56">
          <mxGeometry relative="1" as="geometry">
            <mxPoint x="1000" y="491" as="sourcePoint" />
            <mxPoint x="967" y="440" as="targetPoint" />
          </mxGeometry>
        </mxCell>
        <mxCell id="OkytQklIWuGLJE1TqMZ0-55" value="occurred at date" style="edgeLabel;resizable=0;html=1;;align=center;verticalAlign=middle;" connectable="0" vertex="1" parent="OkytQklIWuGLJE1TqMZ0-54">
          <mxGeometry relative="1" as="geometry" />
        </mxCell>
        <mxCell id="OkytQklIWuGLJE1TqMZ0-56" value="14th of August, 2025" style="swimlane;fontStyle=0;childLayout=stackLayout;horizontal=1;startSize=26;strokeColor=#DDD9C3;strokeWidth=2;fillColor=none;horizontalStack=0;resizeParent=1;resizeParentMax=0;resizeLast=0;collapsible=1;marginBottom=0;whiteSpace=wrap;html=1;" vertex="1" parent="1">
          <mxGeometry x="901.25" y="420" width="122.5" height="52" as="geometry" />
        </mxCell>
        <mxCell id="OkytQklIWuGLJE1TqMZ0-57" value="Date" style="text;strokeColor=#DDD9C3;strokeWidth=2;fillColor=#DDD9C3;align=center;verticalAlign=top;spacingLeft=4;spacingRight=4;overflow=hidden;rotatable=0;points=[[0,0.5],[1,0.5]];portConstraint=eastwest;whiteSpace=wrap;html=1;" vertex="1" parent="OkytQklIWuGLJE1TqMZ0-56">
          <mxGeometry y="26" width="122.5" height="26" as="geometry" />
        </mxCell>
        <mxCell id="OkytQklIWuGLJE1TqMZ0-58" value="" style="endArrow=classic;html=1;rounded=0;exitX=-0.031;exitY=1.077;exitDx=0;exitDy=0;exitPerimeter=0;curved=1;entryX=0.011;entryY=0.962;entryDx=0;entryDy=0;entryPerimeter=0;" edge="1" parent="1" source="OkytQklIWuGLJE1TqMZ0-14" target="OkytQklIWuGLJE1TqMZ0-2">
          <mxGeometry relative="1" as="geometry">
            <mxPoint x="750" y="650" as="sourcePoint" />
            <mxPoint x="550" y="230" as="targetPoint" />
            <Array as="points">
              <mxPoint x="610" y="740" />
              <mxPoint x="410" y="740" />
            </Array>
          </mxGeometry>
        </mxCell>
        <mxCell id="OkytQklIWuGLJE1TqMZ0-59" value="is or was holder of" style="edgeLabel;resizable=0;html=1;;align=center;verticalAlign=middle;" connectable="0" vertex="1" parent="OkytQklIWuGLJE1TqMZ0-58">
          <mxGeometry relative="1" as="geometry">
            <mxPoint x="76" y="-62" as="offset" />
          </mxGeometry>
        </mxCell>
      </root>
    </mxGraphModel>
  </diagram>
</mxfile>
